<?xml version="1.0" standalone="no"?><svg xmlns="http://www.w3.org/2000/svg" viewBox="0 0 1440 320"><path fill="#0099ff" fill-opacity="1" d="M0,64L7.5,106.7C15,149,30,235,45,256C60,277,75,235,90,181.3C105,128,120,64,135,69.3C150,75,165,149,180,154.7C195,160,210,96,225,64C240,32,255,32,270,53.3C285,75,300,117,315,160C330,203,345,245,360,250.7C375,256,390,224,405,229.3C420,235,435,277,450,288C465,299,480,277,495,256C510,235,525,213,540,197.3C555,181,570,171,585,138.7C600,107,615,53,630,42.7C645,32,660,64,675,96C690,128,705,160,720,186.7C735,213,750,235,765,229.3C780,224,795,192,810,186.7C825,181,840,203,855,218.7C870,235,885,245,900,229.3C915,213,930,171,945,176C960,181,975,235,990,261.3C1005,288,1020,288,1035,261.3C1050,235,1065,181,1080,181.3C1095,181,1110,235,1125,229.3C1140,224,1155,160,1170,144C1185,128,1200,160,1215,144C1230,128,1245,64,1260,64C1275,64,1290,128,1305,138.7C1320,149,1335,107,1350,96C1365,85,1380,107,1395,112C1410,117,1425,107,1433,101.3L1440,96L1440,0L1432.5,0C1425,0,1410,0,1395,0C1380,0,1365,0,1350,0C1335,0,1320,0,1305,0C1290,0,1275,0,1260,0C1245,0,1230,0,1215,0C1200,0,1185,0,1170,0C1155,0,1140,0,1125,0C1110,0,1095,0,1080,0C1065,0,1050,0,1035,0C1020,0,1005,0,990,0C975,0,960,0,945,0C930,0,915,0,900,0C885,0,870,0,855,0C840,0,825,0,810,0C795,0,780,0,765,0C750,0,735,0,720,0C705,0,690,0,675,0C660,0,645,0,630,0C615,0,600,0,585,0C570,0,555,0,540,0C525,0,510,0,495,0C480,0,465,0,450,0C435,0,420,0,405,0C390,0,375,0,360,0C345,0,330,0,315,0C300,0,285,0,270,0C255,0,240,0,225,0C210,0,195,0,180,0C165,0,150,0,135,0C120,0,105,0,90,0C75,0,60,0,45,0C30,0,15,0,8,0L0,0Z"></path></svg>